<?xml version="1.0" encoding="UTF-8" standalone="no"?>
<!-- Created with Inkscape (http://www.inkscape.org/) -->

<svg
   width="377.29327"
   height="376.35605"
   viewBox="0 0 99.82551 99.577541"
   version="1.1"
   id="svg5"
   inkscape:version="1.1.2 (b8e25be833, 2022-02-05)"
   sodipodi:docname="pencil.svg"
   xmlns:inkscape="http://www.inkscape.org/namespaces/inkscape"
   xmlns:sodipodi="http://sodipodi.sourceforge.net/DTD/sodipodi-0.dtd"
   xmlns="http://www.w3.org/2000/svg"
   xmlns:svg="http://www.w3.org/2000/svg">
  <sodipodi:namedview
     id="namedview7"
     pagecolor="#ffffff"
     bordercolor="#666666"
     borderopacity="1.0"
     inkscape:pageshadow="2"
     inkscape:pageopacity="0.0"
     inkscape:pagecheckerboard="0"
     inkscape:document-units="mm"
     showgrid="false"
     inkscape:zoom="1.4142136"
     inkscape:cx="350.37141"
     inkscape:cy="243.95184"
     inkscape:window-width="1920"
     inkscape:window-height="1017"
     inkscape:window-x="-8"
     inkscape:window-y="-8"
     inkscape:window-maximized="1"
     inkscape:current-layer="layer1"
     units="px"
     fit-margin-top="10"
     fit-margin-left="10"
     fit-margin-right="10"
     fit-margin-bottom="10">
    <inkscape:grid
       type="xygrid"
       id="grid857"
       originx="-44.846665"
       originy="-77.842401" />
  </sodipodi:namedview>
  <defs
     id="defs2">
    <inkscape:path-effect
       effect="roughen"
       id="path-effect8422"
       is_visible="true"
       lpeversion="1.1"
       method="size"
       max_segment_size="0.079375"
       segments="2"
       displace_x="0.0264583;1"
       displace_y="0.0264583;1"
       global_randomize="1;1"
       handles="along"
       shift_nodes="true"
       fixed_displacement="false"
       spray_tool_friendly="false" />
    <inkscape:path-effect
       effect="roughen"
       id="path-effect8253"
       is_visible="true"
       lpeversion="1.1"
       method="size"
       max_segment_size="0.0740832"
       segments="2"
       displace_x="0.02;1"
       displace_y="0.0246944;1"
       global_randomize="1;1"
       handles="along"
       shift_nodes="true"
       fixed_displacement="false"
       spray_tool_friendly="false" />
    <inkscape:path-effect
       effect="mirror_symmetry"
       start_point="132.29167,90.222917"
       end_point="47.625,174.625"
       center_point="89.958335,132.42396"
       id="path-effect1806"
       is_visible="true"
       lpeversion="1.1"
       mode="free"
       discard_orig_path="false"
       fuse_paths="true"
       oposite_fuse="false"
       split_items="false"
       split_open="false" />
  </defs>
  <g
     inkscape:label="Layer 1"
     inkscape:groupmode="layer"
     id="layer1"
     transform="translate(-44.846666,-77.842399)">
    <g
       id="g8121">
      <path
         style="fill:#f79a10;fill-opacity:1;stroke:#000000;stroke-width:0.265;stroke-linecap:round;stroke-linejoin:miter;stroke-miterlimit:4;stroke-dasharray:none;stroke-opacity:1"
         d="m 47.625,174.625 5.291644,0.0166 m 0,0 82.277146,-81.763707 -2.76962,-2.787019 -2.77834,-2.778335 -82.020831,82.020831 m 0,0 v 5.29167"
         id="path1724"
         sodipodi:nodetypes="ccccccccc" />
      <path
         style="fill:none;stroke:#000000;stroke-width:0.264583px;stroke-linecap:butt;stroke-linejoin:miter;stroke-opacity:1"
         d="m 47.624999,169.33333 5.291667,5.29167"
         id="path3378" />
      <path
         style="fill:none;stroke:#000000;stroke-width:0.264583px;stroke-linecap:butt;stroke-linejoin:miter;stroke-opacity:1"
         d="M 48.947916,170.65625 130.96875,88.635416"
         id="path3606" />
      <path
         style="fill:none;stroke:#000000;stroke-width:0.264583px;stroke-linecap:butt;stroke-linejoin:miter;stroke-opacity:1"
         d="M 51.593749,173.30208 133.61458,91.281249"
         id="path3721" />
      <path
         style="fill:#b1abab;fill-opacity:1;stroke:#000000;stroke-width:0.264583px;stroke-linecap:butt;stroke-linejoin:miter;stroke-opacity:1"
         d="m 129.64583,87.312499 3.96875,-3.96875 5.55625,5.556251 -3.96875,3.968749 -5.55625,-5.55625"
         id="path3836"
         sodipodi:nodetypes="ccccc" />
      <path
         style="fill:#e48787;fill-opacity:1;stroke:#000000;stroke-width:0.264583px;stroke-linecap:butt;stroke-linejoin:miter;stroke-opacity:1"
         d="m 133.61458,83.343749 c 0,0 2.38125,-2.381249 2.64583,-2.645833 0.79373,-0.793749 6.35001,4.762486 5.55625,5.55625 -0.79374,0.793751 -2.64583,2.645833 -2.64583,2.645833 z"
         id="path4088"
         sodipodi:nodetypes="csscc" />
      <path
         style="fill:#323232;fill-opacity:1;stroke:#000000;stroke-width:0.264583px;stroke-linecap:butt;stroke-linejoin:miter;stroke-opacity:1"
         d="m 47.624999,174.625 v -2.64584 l 2.38125,2.64584 h -2.38125"
         id="path6927" />
      <path
         style="fill:#d9c29f;fill-opacity:1;stroke:#000000;stroke-width:0.0661458;stroke-linecap:butt;stroke-linejoin:miter;stroke-miterlimit:4;stroke-dasharray:none;stroke-opacity:1"
         d="m 50.006249,174.625 -2.38125,-2.64584 v -2.64583 l 5.291667,5.29167 z"
         id="path7325" />
    </g>
    <path
       style="fill:none;stroke:#000000;stroke-width:0.264583px;stroke-linecap:butt;stroke-linejoin:miter;stroke-opacity:1"
       d="m 131.9276,86.888194 0.0607,0.03701 0.0394,0.0519 0.0533,0.07848 0.0512,0.05223 0.0515,0.05245 0.0398,0.04244 0.051,0.07825 0.0619,0.05419 0.0416,0.04198 0.0489,0.04945 0.0533,0.05582 0.0543,0.05228 0.0558,0.06425 0.0369,0.02532 0.0727,0.06403 0.0456,0.04451 0.0555,0.05596 0.052,0.05237 0.0637,0.05271 0.0472,0.03873 0.054,0.05439 0.0523,0.05191 0.0567,0.05491 0.0498,0.04951 0.0524,0.05394 0.0471,0.03928 0.0646,0.06767 0.0477,0.03321 0.0514,0.04899 0.06,0.05995 0.0501,0.04074 0.0485,0.06331 0.05,0.0607 0.0483,0.04864 0.0499,0.05648 0.0521,0.04898 0.0449,0.0633 0.0551,0.0553 0.0492,0.04803 0.0441,0.05506 0.0522,0.04798 0.0638,0.06215 0.0358,0.06761 0.0641,0.06602 0.0313,0.01388 0.0642,0.05809 0.0578,0.05539 0.0528,0.04713 0.0556,0.05406 0.0528,0.04855 0.0524,0.05101 0.0648,0.05102 0.0421,0.04659 0.0552,0.07331 0.0455,0.04412 0.0411,0.03957 0.0708,0.05392 0.0428,0.05659 0.0576,0.05518 0.0464,0.05222 0.0567,0.05442 0.0448,0.06493 0.0635,0.05349 0.0488,0.04532 0.0655,0.02962 0.066,0.06502 0.0212,0.0314 0.0607,0.0776 0.0608,0.03377 0.0504,0.0511 0.0607,0.05606"
       id="path8171"
       inkscape:path-effect="#path-effect8253"
       inkscape:original-d="m 131.9276,86.888194 3.70416,3.704167" />
    <path
       style="fill:none;stroke:#000000;stroke-width:0.264583px;stroke-linecap:butt;stroke-linejoin:miter;stroke-opacity:1"
       d="m 133.35,85.460416 0.0672,0.03965 0.0371,0.05456 0.057,0.08607 0.0566,0.05702 0.0556,0.05582 0.04,0.04512 0.0535,0.08497 0.0711,0.05919 0.0427,0.04319 0.0516,0.05301 0.0571,0.06022 0.0588,0.05625 0.0606,0.06865 0.0372,0.02663 0.0808,0.06947 0.0471,0.04672 0.0598,0.06034 0.0556,0.05614 0.0712,0.05649 0.0493,0.04006 0.0575,0.05815 0.0559,0.05578 0.0617,0.05896 0.0529,0.05264 0.0561,0.05779 0.0494,0.04207 0.0708,0.07302 0.0508,0.03504 0.0533,0.05232 0.0652,0.06501 0.0532,0.0436 0.0496,0.06804 0.0536,0.06626 0.0516,0.05269 0.0526,0.06089 0.056,0.05312 0.0457,0.06803 0.0608,0.06058 0.0522,0.05128 0.045,0.05915 0.0561,0.05263 0.0703,0.06708 0.0347,0.07178 0.0743,0.07233 0.0302,0.01302 0.0691,0.06267 0.0626,0.05943 0.0567,0.05024 0.06,0.0577 0.0568,0.05173 0.0559,0.05436 0.0725,0.0546 0.0423,0.04837 0.0599,0.0791 0.0493,0.04731 0.0414,0.04207 0.0794,0.05879 0.0426,0.05943 0.0639,0.06013 0.0485,0.05542 0.0624,0.05863 0.0465,0.06899 0.0729,0.0579 0.0519,0.0466 0.0738,0.03085 0.0723,0.0675 0.0164,0.0321 0.0662,0.08505 0.0685,0.0365 0.0522,0.0538 0.067,0.0604"
       id="path8340"
       inkscape:path-effect="#path-effect8422"
       inkscape:original-d="m 133.35,85.460416 3.96875,3.96875" />
  </g>
</svg>
